HIERARCHY
ROOT ui
{
	 OFFSET 0 0 0
	 CHANNELS 3 XPosition YPosition Z Position
	 EndSite
	 {
	 OFFSET 0 -1 0
	 }
}
ROOT li
{
	 OFFSET 0 0 0
	 CHANNELS 3 XPosition YPosition Z Position
	 EndSite
	 {
	 OFFSET 0 -1 0
	 }
}
ROOT ul
{
	 OFFSET 0 0 0
	 CHANNELS 3 XPosition YPosition Z Position
	 EndSite
	 {
	 OFFSET 0 -1 0
	 }
}
ROOT ll
{
	 OFFSET 0 0 0
	 CHANNELS 3 XPosition YPosition Z Position
	 EndSite
	 {
	 OFFSET 0 -1 0
	 }
}
ROOT tt
{
	 OFFSET 0 0 0
	 CHANNELS 3 XPosition YPosition Z Position
	 EndSite
	 {
	 OFFSET 0 -1 0
	 }
}
ROOT tb
{
	 OFFSET 0 0 0
	 CHANNELS 3 XPosition YPosition Z Position
	 EndSite
	 {
	 OFFSET 0 -1 0
	 }
}
ROOT td
{
	 OFFSET 0 0 0
	 CHANNELS 3 XPosition YPosition Z Position
	 EndSite
	 {
	 OFFSET 0 -1 0
	 }
}
ROOT v
{
	 OFFSET 0 0 0
	 CHANNELS 3 XPosition YPosition Z Position
	 EndSite
	 {
	 OFFSET 0 -1 0
	 }
}
ROOT bn
{
	 OFFSET 0 0 0
	 CHANNELS 3 XPosition YPosition Z Position
	 EndSite
	 {
	 OFFSET 0 -1 0
	 }
}
MOTION
Frames: 24
Frame Time: 0.002
-0.0014128999710083007	-2.3281300067901612E-4	0		0.46208566284179686	-2.288764892578125	0		-1.085364501953125	0.01632147216796875	0		-0.8177763061523438	-2.244568115234375	0		1.3671534423828124	-0.43972259521484375	0		3.17053076171875	-0.022633499145507812	0		4.39057470703125	0.1440235595703125	0		5.551130859375	0.15656166076660155	0		-0.448307373046875	5.827263671875	0		
-0.047584209442138675	0.0035114679336547853	0		0.4255876770019531	-2.285120849609375	0		-1.069509765625	0.027008264541625977	0		-0.8102647705078125	-2.23989208984375	0		1.3769293212890625	-0.43336526489257815	0		3.199301025390625	-0.03559842300415039	0		4.38043115234375	0.14304641723632813	0		5.56396142578125	0.15331167602539061	0		-0.3995586242675781	5.85675	0		
0.016162824630737305	0.008883432388305664	0		0.48597720336914063	-2.288805419921875	0		-1.0657803955078125	0.026739429473876954	0		-0.8038507080078126	-2.23820849609375	0		1.3836038818359375	-0.43099270629882813	0		3.203103271484375	-0.0134744873046875	0		4.397251953125	0.15698455810546874	0		5.56770849609375	0.15209947204589844	0		-0.39599658203125	5.8573896484375	0		
-0.04524494171142578	0.007713554859161377	0		0.4492743835449219	-2.283133544921875	0		-1.0011939697265626	0.023253984451293945	0		-0.7405767211914063	-2.240726806640625	0		1.381112060546875	-0.43857196044921876	0		3.156651611328125	-0.026144790649414062	0		4.3918369140625	0.14202362060546875	0		5.5672978515625	0.14392863464355468	0		-0.37160321044921873	5.85196240234375	0		
0.016161451339721678	0.002106278896331787	0		0.47737103271484377	-2.28868115234375	0		-1.0767767333984375	0.02030195426940918	0		-0.8124351806640625	-2.2357294921875	0		1.3814661865234374	-0.4421380920410156	0		3.19406884765625	-0.028093208312988283	0		4.40930126953125	0.14101190185546875	0		5.56577685546875	0.1518036651611328	0		-0.36738641357421875	5.85162158203125	0		
-0.05961209487915039	0.0030479559898376465	0		0.4512958679199219	-2.28899755859375	0		-1.0675723876953125	0.01504817008972168	0		-0.7265599365234375	-2.250322998046875	0		1.38463037109375	-0.44268707275390623	0		3.197286865234375	-0.028877389907836913	0		4.39856103515625	0.14015155029296875	0		5.56901806640625	0.1507117462158203	0		-0.36340554809570313	5.8512998046875	0		
-0.030626625061035157	0.0016027170419692994	0		0.43003570556640625	-2.281301513671875	0		-1.0525362548828125	0.02578452491760254	0		-0.7948108520507813	-2.2412890625	0		1.39359375	-0.4362287902832031	0		3.206333984375	-0.014642909049987793	0		4.41158203125	0.1382462158203125	0		5.58101806640625	0.147641357421875	0		-0.393714111328125	5.84613720703125	0		
-0.053885540008544924	0.002394797086715698	0		0.4625057373046875	-2.281798828125	0		-1.0497967529296874	0.025586416244506836	0		-0.752336181640625	-2.241685546875	0		1.396279296875	-0.4367122802734375	0		3.190031005859375	-0.024257858276367186	0		4.4083857421875	0.1454591064453125	0		5.5788134765625	0.1566902618408203	0		-0.3902955627441406	5.8458623046875	0		
-0.025416929244995116	9.940890073776244E-4	0		0.46271539306640624	-2.28513525390625	0		-1.0553511962890625	0.01844183349609375	0		-0.8020870971679688	-2.2366728515625	0		1.392674072265625	-0.44413381958007814	0		3.22153125	-0.01802743911743164	0		4.40686083984375	0.137720458984375	0		5.57726904296875	0.14780128479003907	0		-0.3531601257324219	5.8504638671875	0		
-0.023208209991455078	7.297009825706482E-4	0		0.4876582336425781	-2.29255126953125	0		-0.9821634521484375	0.012969337463378906	0		-0.7251309814453125	-2.24218896484375	0		1.394837158203125	-0.44454379272460937	0		3.190680908203125	-0.0314791316986084	0		4.4090986328125	0.13702157592773437	0		5.5894931640625	0.1469175262451172	0		-0.3784390563964844	5.83035693359375	0		
-0.021256519317626954	4.927510023117065E-4	0		0.46239971923828127	-2.290715087890625	0		-1.055205322265625	0.014162927627563477	0		-0.7904158935546876	-2.24705615234375	0		1.3967462158203126	-0.44491647338867185	0		3.20466552734375	-0.02407802391052246	0		4.411078125	0.13637948608398437	0		5.58641796875	0.13716595458984376	0		-0.3818614807128906	5.84518115234375	0		
0.03345031356811524	3.945399820804596E-5	0		0.47688916015625	-2.29402734375	0		-1.04350146484375	0.012999737739562988	0		-0.7848855590820313	-2.24221533203125	0		1.4153907470703124	-0.45033016967773437	0		3.231315185546875	-0.03668943023681641	0		4.40284326171875	0.1428394775390625	0		5.592169921875	0.14343902587890625	0		-0.3626016845703125	5.85192578125	0		
-0.034019264221191406	0.011177029609680176	0		0.47323873901367186	-2.281226318359375	0		-1.039966064453125	0.024893404006958008	0		-0.7415838012695313	-2.240530517578125	0		1.4089019775390625	-0.4355928039550781	0		3.209935791015625	-0.0060319328308105465	0		4.41834521484375	0.14224356079101563	0		5.59365966796875	0.1427939910888672	0		-0.3626307373046875	5.85378173828125	0		
0.03619234466552734	-3.047879934310913E-4	0		0.49528021240234377	-2.291518310546875	0		-0.981734130859375	0.017545711517333983	0		-0.746524658203125	-2.247600830078125	0		1.4010850830078125	-0.44581338500976564	0		3.18007568359375	-0.032285377502441405	0		4.42463623046875	0.14274111938476564	0		5.5909013671875	0.13522923278808593	0		-0.37496624755859376	5.843720703125	0		
-0.04173715972900391	9.443039894104004E-4	0		0.4671830749511719	-2.29154345703125	0		-1.0496866455078124	0.013818571090698242	0		-0.7185951538085937	-2.242808837890625	0		1.4021182861328125	-0.44604293823242186	0		3.210171630859375	-0.025781181335449217	0		4.4107216796875	0.14238421630859374	0		5.58701904296875	0.14372714233398437	0		-0.4025889892578125	5.82275732421875	0		
0.03511826705932617	-0.0045328340530395505	0		0.4949041442871094	-2.293813720703125	0		-1.0488050537109375	0.013779631614685059	0		-0.7848844604492188	-2.247541015625	0		1.4029698486328126	-0.4462419128417969	0		3.216011474609375	-0.034122562408447264	0		4.4265478515625	0.1269285888671875	0		5.5968994140625	0.14121095275878906	0		-0.3722255859375	5.84353369140625	0		
-0.04014363479614258	7.549750208854676E-4	0		0.4514752807617187	-2.294712158203125	0		-1.04407177734375	0.01773537826538086	0		-0.782291259765625	-2.244591064453125	0		1.406670654296875	-0.44342770385742186	0		3.216836181640625	-0.011402104377746582	0		4.4173916015625	0.14963824462890624	0		5.59762060546875	0.1407893829345703	0		-0.3371393127441406	5.84830029296875	0		
0.03941135787963867	-7.078189849853516E-4	0		0.47496670532226565	-2.2839208984375	0		-1.035474853515625	0.024682968139648438	0		-0.7768319702148437	-2.240642578125	0		1.4091624755859375	-0.45258270263671874	0		3.21728125	-0.0346450080871582	0		4.42792822265625	0.141290771484375	0		5.60323388671875	0.14939193725585936	0		-0.3362613220214844	5.84824951171875	0		
-0.03915646743774414	6.377729773521424E-4	0		0.47125634765625	-2.28897607421875	0		-0.9721090698242187	0.01236203956604004	0		-0.7065614624023437	-2.250011474609375	0		1.4045970458984376	-0.4466785888671875	0		3.227811767578125	-0.013905095100402833	0		4.42836865234375	0.14103237915039063	0		5.61762158203125	0.13999578857421874	0		-0.3355503845214844	5.84821337890625	0		
0.04014566040039062	-8.020470142364502E-4	0		0.49643936157226565	-2.294162353515625	0		-1.046794189453125	0.013749171257019042	0		-0.7833396606445312	-2.247625732421875	0		1.4048858642578126	-0.4467776184082031	0		3.21305322265625	-0.02700650405883789	0		4.42365380859375	0.1338363952636719	0		5.594900390625	0.13283143615722656	0		-0.36901336669921875	5.84336376953125	0		
-0.042661449432373044	-0.0034019410610198974	0		0.46956915283203127	-2.29206787109375	0		-0.971592529296875	0.012378016471862792	0		-0.7082402954101562	-2.252007080078125	0		1.402055419921875	-0.450841552734375	0		3.20729541015625	-0.02012458038330078	0		4.428908203125	0.14062289428710936	0		5.5942001953125	0.1495960235595703	0		-0.3966945495605469	5.82149658203125	0		
0.04047616577148438	-8.447909951210022E-4	0		0.48259979248046875	-2.295165283203125	0		-1.0284317626953126	0.01969137191772461	0		-0.7811553955078125	-2.24461962890625	0		1.4161219482421874	-0.4589754333496094	0		3.228329833984375	-0.0373552131652832	0		4.41999951171875	0.13251321411132813	0		5.59927685546875	0.1393679962158203	0		-0.33717453002929687	5.860189453125	0		
-0.005430744171142578	0.00638897180557251	0		0.5115893249511718	-2.295334716796875	0		-0.9533814086914062	0.018325876235961915	0		-0.7021702880859375	-2.24601318359375	0		1.425221923828125	-0.4480677490234375	0		3.215535888671875	-0.008385398864746093	0		4.42910546875	0.1403401794433594	0		5.60337841796875	0.14718128967285157	0		-0.31697085571289063	5.8560908203125	0		
0.040535541534423826	-8.47465991973877E-4	0		0.4715694580078125	-2.2891337890625	0		-1.0464024658203126	0.013839435577392579	0		-0.7531887817382813	-2.239725341796875	0		1.4052200927734375	-0.446993408203125	0		3.213439697265625	-0.02744799995422363	0		4.41812646484375	0.14229998779296876	0		5.59439599609375	0.14909759521484375	0		-0.3328735046386719	5.84718603515625	0		
